<?xml version="1.0" standalone="no"?>
<!DOCTYPE svg PUBLIC "-//W3C//DTD SVG 20010904//EN"
 "http://www.w3.org/TR/2001/REC-SVG-20010904/DTD/svg10.dtd">
<svg version="1.0" xmlns="http://www.w3.org/2000/svg"
 width="1114.000000pt" height="1114.000000pt" viewBox="0 0 1114.000000 1114.000000"
 preserveAspectRatio="xMidYMid meet">
<metadata>
Created by potrace 1.14, written by Peter Selinger 2001-2017
</metadata>
<g transform="translate(0.000000,1114.000000) scale(0.100000,-0.100000)"
fill="#000000" stroke="none">
<path d="M5280 11119 c-502 -43 -917 -127 -1370 -279 -1926 -644 -3340 -2263
-3739 -4280 -78 -394 -105 -677 -105 -1110 -1 -509 45 -890 160 -1355 327
-1315 1117 -2432 2250 -3178 1213 -800 2694 -1090 4104 -802 881 180 1699 580
2435 1191 168 140 550 521 695 694 444 528 784 1111 1016 1740 188 509 296
1019 335 1585 17 245 7 712 -21 940 -156 1308 -728 2474 -1653 3372 -861 834
-1930 1332 -3157 1469 -170 19 -785 28 -950 13z m620 -550 c1737 -135 3291
-1163 4137 -2734 528 -980 717 -2110 532 -3180 -85 -491 -234 -938 -465 -1395
-179 -356 -365 -637 -635 -961 -129 -155 -416 -442 -571 -572 -776 -651 -1676
-1032 -2698 -1142 -203 -22 -646 -30 -855 -16 -1697 119 -3193 1003 -4069
2403 -974 1557 -1042 3536 -175 5095 328 590 777 1101 1331 1514 973 726 2233
1085 3468 988z"/>
<path d="M2495 8559 c-117 -17 -214 -89 -263 -193 -155 -328 -2 -1074 402
-1960 l86 -189 -74 -186 c-168 -424 -226 -708 -213 -1041 13 -309 77 -540 247
-885 433 -878 1192 -1365 2345 -1502 188 -22 825 -26 1000 -5 660 76 1181 270
1633 606 136 102 377 341 475 473 318 430 479 888 518 1482 25 373 -29 689
-172 1013 -23 51 -49 116 -59 145 l-19 52 96 218 c223 509 342 837 387 1069
48 252 60 353 60 539 1 167 -1 183 -22 230 -73 158 -204 178 -569 84 -512
-132 -1000 -295 -1644 -550 l-231 -91 -106 31 c-128 37 -318 75 -462 93 -157
19 -565 16 -715 -6 -138 -20 -323 -58 -409 -84 l-60 -18 -215 84 c-439 170
-812 300 -1296 451 -341 106 -419 127 -540 141 -100 11 -96 11 -180 -1z"/>
</g>
</svg>
