<svg width="61" height="60" viewBox="0 0 61 60" fill="none" xmlns="http://www.w3.org/2000/svg">
<path d="M30.9533 2.7704e-06C25.0193 -0.00254401 19.2179 1.75473 14.2827 5.04963C9.34753 8.34452 5.50036 13.029 3.22775 18.5106C0.955151 23.9921 0.359214 30.0245 1.51532 35.8448C2.67142 41.6651 5.52762 47.0118 9.72268 51.2086C13.9177 55.4055 19.2632 58.264 25.083 59.4226C30.9028 60.5812 36.9354 59.9879 42.418 57.7176C47.9005 55.4473 52.5866 51.6022 55.8836 46.6684C59.1806 41.7347 60.9404 35.934 60.9404 30C60.9438 26.0605 60.1706 22.1589 58.665 18.5184C57.1593 14.878 54.9508 11.5701 52.1657 8.7838C49.3807 5.99754 46.0737 3.78761 42.4339 2.28041C38.7941 0.773213 34.8928 -0.00169092 30.9533 2.7704e-06ZM50.7301 13.7253C54.45 18.2396 56.5088 23.8933 56.5628 29.7425C50.6913 28.559 44.6737 28.2768 38.7173 28.9056C38.537 28.4678 38.3568 28.0171 38.1636 27.618C37.6228 26.3562 37.0563 25.1201 36.464 23.9098C46.5713 19.7253 50.6786 13.8025 50.7301 13.7253ZM30.9533 4.37768C37.1902 4.38295 43.209 6.67322 47.8718 10.8154C47.7945 10.9184 44.1507 16.4678 34.4941 20.0858C31.6374 14.8952 28.4371 9.90128 24.9147 5.13733C26.8906 4.64713 28.9175 4.39214 30.9533 4.37768ZM20.022 6.82402C23.4705 11.5628 26.6473 16.4934 29.537 21.5923C21.8153 23.6212 13.8684 24.6681 5.88464 24.7081C6.70374 20.8394 8.40592 17.2123 10.8583 14.11C13.3106 11.0077 16.4468 8.51413 20.022 6.82402ZM5.34387 30C5.34387 29.7296 5.34387 29.4592 5.34387 29.1759C14.2366 29.2196 23.09 27.9926 31.6357 25.5322C32.3696 26.9742 33.0778 28.4292 33.7216 29.8841L32.7044 30.1931C18.9018 34.6609 11.8846 47.0987 11.8846 47.0987C7.66681 42.4029 5.3368 36.3119 5.34387 30ZM30.9533 55.6094C25.2447 55.6086 19.7009 53.6957 15.2065 50.176L14.6271 49.7253C14.8203 49.8798 15.0263 50.0086 15.2065 50.1631C15.3095 49.9442 20.2795 39.412 35.3052 34.1716H35.4726C37.9138 40.4626 39.7462 46.9731 40.9447 53.6137C37.7838 54.9489 34.3846 55.6279 30.9533 55.6094ZM45.258 51.2317C44.12 45.0067 42.453 38.8901 40.2752 32.9485C45.6144 32.1552 51.0623 32.533 56.2409 34.0558C55.683 37.5179 54.4205 40.8287 52.5313 43.7832C50.6422 46.7376 48.1666 49.2728 45.258 51.2317Z" fill="black"/>
</svg>
