<svg width="62" height="60" viewBox="0 0 62 60" fill="none" xmlns="http://www.w3.org/2000/svg">
<path d="M0.94043 16.0822C1.29697 13.2809 2.15815 10.5673 3.48231 8.07306C6.91887 2.39281 12.2867 0.305314 18.4924 0.163307C26.9465 -0.0544358 35.4054 -0.0544358 43.8689 0.163307C49.5492 0.305314 54.7182 2.194 58.2116 7.16422C60.3186 10.3169 61.4135 14.0375 61.3499 17.8289C61.4777 25.9517 61.5345 34.0886 61.3499 42.2114C61.1937 48.7437 58.9216 54.3387 52.8295 57.6617C50.0246 59.1415 46.8983 59.9072 43.727 59.8912C35.377 59.9906 27.027 60.0758 18.6912 59.8912C12.4287 59.735 6.9899 57.6333 3.51074 51.953C2.18057 49.4664 1.31893 46.7563 0.968815 43.9581L0.94043 16.0822ZM31.2304 5.88616C27.0838 5.88616 22.9372 5.80096 18.7906 5.88616C12.3152 6.04237 8.33897 9.0813 7.16032 14.648C6.88961 15.837 6.73738 17.05 6.70589 18.2691C6.70589 26.1221 6.56388 33.975 6.70589 41.8138C6.84789 49.6525 10.8099 53.7991 18.3362 54.0831C26.8566 54.3956 35.377 54.3672 43.8974 54.0831C50.1741 53.8843 53.8378 50.8596 55.1017 45.4349C55.3426 44.4672 55.4854 43.4776 55.5277 42.4812C55.5277 33.5348 56.0531 24.5742 55.2579 15.642C55.1112 13.2067 54.0888 10.9065 52.3794 9.16577C50.6699 7.42502 48.3887 6.36107 45.9564 6.17017C41.0714 5.50274 36.1438 5.98557 31.2304 5.88616Z" fill="black"/>
<path d="M46.823 30.1124C46.823 33.2019 45.9068 36.222 44.1904 38.7908C42.474 41.3596 40.0343 43.3618 37.18 44.5441C34.3257 45.7263 31.1849 46.0357 28.1548 45.433C25.1247 44.8302 22.3414 43.3425 20.1568 41.1579C17.9722 38.9733 16.4844 36.19 15.8817 33.1599C15.279 30.1297 15.5883 26.9889 16.7706 24.1346C17.9529 21.2803 19.9551 18.8407 22.5239 17.1243C25.0927 15.4078 28.1128 14.4917 31.2023 14.4917C35.3359 14.5214 39.2919 16.1767 42.2149 19.0998C45.1379 22.0228 46.7932 25.9787 46.823 30.1124ZM41.0149 30.1124C41.0544 28.1384 40.5051 26.1973 39.4371 24.5367C38.3692 22.876 36.8308 21.5711 35.0182 20.7881C33.2057 20.0052 31.2011 19.7797 29.2599 20.1405C27.3187 20.5013 25.529 21.4321 24.1188 22.814C22.7087 24.196 21.742 25.9665 21.3421 27.9C20.9421 29.8335 21.127 31.8423 21.8732 33.6703C22.6194 35.4983 23.893 37.0627 25.5317 38.164C27.1704 39.2653 29.1 39.8536 31.0745 39.854C33.679 39.8394 36.1737 38.8031 38.022 36.968C39.8704 35.133 40.9246 32.6458 40.9581 30.0414L41.0149 30.1124Z" fill="black"/>
<path d="M47.2491 10.3596C48.2522 10.3482 49.219 10.7349 49.9377 11.4349C50.6563 12.1349 51.0683 13.0913 51.0833 14.0944C51.024 15.0654 50.5964 15.9772 49.8879 16.6438C49.1794 17.3104 48.2432 17.6816 47.2704 17.6816C46.2976 17.6816 45.3614 17.3104 44.6528 16.6438C43.9443 15.9772 43.5168 15.0654 43.4575 14.0944C43.4594 13.5997 43.5591 13.1102 43.751 12.6542C43.9429 12.1982 44.2232 11.7847 44.5756 11.4375C44.9281 11.0903 45.3458 10.8163 45.8046 10.6313C46.2634 10.4463 46.7544 10.354 47.2491 10.3596Z" fill="black"/>
</svg>
