<?xml version="1.0" encoding="utf-8"?>
<!-- Generator: Adobe Illustrator 26.0.3, SVG Export Plug-In . SVG Version: 6.00 Build 0)  -->
<svg version="1.1" id="Layer_1" xmlns="http://www.w3.org/2000/svg" xmlns:xlink="http://www.w3.org/1999/xlink" x="0px" y="0px"
	 viewBox="0 0 87.3 78" style="enable-background:new 0 0 87.3 78;" xml:space="preserve">
<style type="text/css">
	.st0{fill:#231F20;}
	.st1{fill:#FFFFFF;}
</style>
<path class="st0" d="M6.6,66.8l3.8,6.7c0.8,1.4,1.9,2.5,3.3,3.3L27.5,53H0c0,1.5,0.4,3.1,1.2,4.5L6.6,66.8z"/>
<path class="st0" d="M43.7,25L29.9,1.2c-1.4,0.8-2.5,1.9-3.3,3.3l-25.4,44C0.4,49.9,0,51.4,0,53h27.5L43.7,25z"/>
<path class="st0" d="M73.6,76.8c1.3-0.8,2.5-1.9,3.3-3.3l1.6-2.8l7.7-13.2c0.8-1.4,1.2-3,1.2-4.5H59.8l5.9,11.5L73.6,76.8z"/>
<path class="st0" d="M43.7,25L57.4,1.2C56.1,0.4,54.5,0,52.9,0H34.4c-1.6,0-3.1,0.4-4.5,1.2L43.7,25z"/>
<path class="st0" d="M59.8,53H27.5L13.8,76.8c1.4,0.8,2.9,1.2,4.5,1.2h50.8c1.6,0,3.2-0.4,4.5-1.2L59.8,53z"/>
<path class="st0" d="M73.4,26.5l-12.7-22c-0.8-1.4-2-2.5-3.3-3.3L43.7,25l16.2,28h27.4c0-1.5-0.4-3.1-1.2-4.5L73.4,26.5z"/>
<polygon class="st1" points="43.6,27 29,1.7 30.8,0.7 43.6,23 56.5,0.7 58.3,1.7 "/>
<polygon class="st1" points="14.6,77.3 12.9,76.3 25.8,54 0,54 0,52 29.2,52 "/>
<polygon class="st1" points="72.7,77.3 58.1,52 87.2,52 87.2,54 61.5,54 74.4,76.3 "/>
</svg>
